<?xml version="1.0" encoding="UTF-8"?>
<svg width="50px" height="50px" viewBox="0 0 50 50" version="1.1" xmlns="http://www.w3.org/2000/svg" xmlns:xlink="http://www.w3.org/1999/xlink">
    <!-- Generator: Sketch 52.6 (67491) - http://www.bohemiancoding.com/sketch -->
    <title>target</title>
    <desc>Created with Sketch.</desc>
    <defs>
        <linearGradient x1="226.977892%" y1="50%" x2="-13.8733261%" y2="50%" id="linearGradient-1">
            <stop stop-color="#9FC1FC" offset="0%"></stop>
            <stop stop-color="#FCFCFC" offset="100%"></stop>
        </linearGradient>
    </defs>
    <g id="Page-2" stroke="none" stroke-width="1" fill="none" fill-rule="evenodd">
        <g id="Design-System" transform="translate(-936.000000, -1912.000000)">
            <g id="target" transform="translate(936.000000, 1912.000000)">
                <circle id="Oval" fill="#318BFF" cx="24.9996094" cy="24.9996094" r="24.9996094"></circle>
                <path d="M40.9054688,22.9660156 C39.9875977,15.7479492 34.2520508,10.0124023 27.034082,9.09472656 L27.034082,4.85371094 L22.9661133,4.85371094 L22.9661133,9.09462891 C15.7480469,10.0124023 10.0125,15.7479492 9.09472656,22.965918 L4.85371094,22.965918 L4.85371094,27.0338867 L9.09453125,27.0338867 C10.0124023,34.2518555 15.7479492,39.9875 22.965918,40.9051758 L22.965918,45.1460938 L27.0338867,45.1460938 L27.0338867,40.9051758 C34.2519531,39.9873047 39.9875977,34.2517578 40.9052734,27.0338867 L45.1460937,27.0338867 L45.1462891,22.9660156 L40.9054688,22.9660156 Z M27.0339844,36.9791016 L27.0339844,33.037793 L22.9660156,33.037793 L22.9660156,36.9791016 C17.8929688,36.1204102 13.8795898,32.1070313 13.0208984,27.034082 L16.962207,27.034082 L16.962207,22.9661133 L13.0208984,22.9661133 C13.8795898,17.8931641 17.8929688,13.8796875 22.9660156,13.0210938 L22.9660156,16.9624023 L27.0339844,16.9624023 L27.0339844,13.0210938 C32.1070313,13.8797852 36.1204102,17.8931641 36.9791016,22.9661133 L33.037793,22.9661133 L33.037793,27.034082 L36.9790039,27.034082 C36.1204102,32.1070313 32.1071289,36.1203125 27.0339844,36.9791016 Z" id="Shape" fill="url(#linearGradient-1)" fill-rule="nonzero"></path>
            </g>
        </g>
    </g>
</svg>